<?xml version="1.0" standalone="no"?>
<!DOCTYPE svg PUBLIC "-//W3C//DTD SVG 20010904//EN"
 "http://www.w3.org/TR/2001/REC-SVG-20010904/DTD/svg10.dtd">
<svg version="1.0" xmlns="http://www.w3.org/2000/svg"
 width="393.000000pt" height="393.000000pt" viewBox="0 0 393.000000 393.000000"
 preserveAspectRatio="xMidYMid meet">
<metadata>
Created by potrace 1.14, written by Peter Selinger 2001-2017
</metadata>
<g transform="translate(0.000000,393.000000) scale(0.100000,-0.100000)"
fill="#000000" stroke="none">
<path d="M2738 2737 c-26 -23 -79 -71 -119 -107 -40 -36 -100 -89 -134 -119
-33 -30 -78 -70 -100 -90 -22 -20 -62 -56 -89 -81 l-48 -45 -912 -1 c-501 -1
-936 -4 -966 -9 -117 -16 -231 -90 -295 -190 -58 -92 -67 -141 -67 -367 0
-224 8 -273 54 -360 56 -105 184 -196 298 -213 75 -11 3191 -8 3228 4 17 5 32
8 32 5 0 -2 28 10 61 27 111 55 191 150 222 259 18 67 17 54 18 280 1 213 -10
279 -64 363 -64 99 -183 178 -292 193 -27 4 -249 7 -492 7 l-441 0 1 33 c1 17
6 29 11 26 5 -3 7 5 4 16 -4 14 -2 20 5 15 6 -4 8 2 5 15 -4 12 -2 20 3 16 8
-5 13 18 12 53 -1 7 2 11 6 8 11 -6 43 103 35 117 -5 7 -3 8 6 3 10 -6 12 -3
8 13 -4 12 -3 20 2 17 4 -2 13 17 20 43 7 26 19 60 27 75 8 16 13 31 11 33 -2
2 -25 -16 -50 -39z"/>
</g>
</svg>
