<?xml version="1.0" standalone="no"?>
<!DOCTYPE svg PUBLIC "-//W3C//DTD SVG 20010904//EN"
 "http://www.w3.org/TR/2001/REC-SVG-20010904/DTD/svg10.dtd">
<svg version="1.0" xmlns="http://www.w3.org/2000/svg"
 width="800.000000pt" height="800.000000pt" viewBox="0 0 800.000000 800.000000"
 preserveAspectRatio="xMidYMid meet">
<metadata>
Created by potrace 1.14, written by Peter Selinger 2001-2017
</metadata>
<g transform="translate(0.000000,800.000000) scale(0.100000,-0.100000)"
fill="#000000" stroke="none">
<path d="M5526 6053 c-90 -250 -164 -451 -279 -763 -35 -96 -71 -192 -78 -212
-7 -22 -20 -38 -29 -38 -8 0 -78 -7 -155 -15 -77 -8 -230 -24 -340 -36 -110
-11 -294 -31 -410 -43 l-210 -22 86 -56 c48 -31 97 -61 109 -68 23 -12 105 -6
465 38 89 11 213 17 340 17 192 0 203 -2 280 -28 147 -51 244 -134 307 -262
38 -77 50 -139 49 -265 -1 -127 -21 -222 -68 -313 -14 -28 -22 -53 -17 -54 5
-2 77 -46 159 -99 83 -52 179 -113 215 -136 36 -23 94 -60 130 -84 117 -76
244 -154 246 -151 2 1 -62 229 -142 507 -79 277 -143 507 -142 511 2 4 62 53
133 110 223 176 353 280 560 445 109 87 211 167 225 177 25 19 25 19 -50 13
-41 -3 -118 -11 -170 -16 -52 -6 -158 -17 -235 -25 -77 -8 -248 -26 -380 -40
-131 -14 -246 -25 -255 -25 -13 0 -47 109 -160 505 -80 278 -147 505 -150 505
-3 0 -18 -35 -34 -77z"/>
<path d="M4860 4669 c-41 -4 -124 -13 -185 -19 -259 -28 -347 -39 -353 -45 -6
-6 -80 -286 -184 -697 l-42 -168 43 -267 c24 -148 47 -271 50 -274 11 -12 212
16 220 30 5 7 20 61 35 119 68 270 70 276 97 283 13 4 40 7 59 8 l36 1 62
-157 c34 -87 67 -173 73 -190 9 -28 16 -33 42 -33 54 1 457 47 464 53 6 7 -4
36 -43 123 -50 110 -134 308 -134 314 0 3 21 16 46 28 57 28 141 90 194 143
160 162 190 474 59 623 -96 109 -286 153 -539 125z m62 -395 c53 -9 88 -47 88
-96 0 -109 -89 -170 -283 -192 -62 -7 -114 -12 -116 -10 -4 4 60 260 69 274 3
5 43 13 90 18 116 13 110 13 152 6z"/>
<path d="M3685 4544 c-110 -13 -207 -23 -217 -24 -10 0 -46 -47 -93 -122 -42
-68 -114 -181 -159 -253 -603 -949 -708 -1117 -702 -1123 3 -3 59 0 123 7 226
24 366 41 368 43 2 2 29 46 60 98 31 52 58 96 59 97 2 3 462 53 482 53 7 0 14
-31 18 -78 4 -42 11 -84 15 -91 10 -15 62 -12 286 15 66 8 139 14 162 14 24 0
43 3 43 8 0 4 -16 113 -36 242 -19 129 -48 321 -64 425 -72 487 -103 691 -106
703 -4 15 5 15 -239 -14z m-120 -695 c8 -68 17 -140 20 -160 l5 -37 -113 -12
c-63 -7 -119 -11 -125 -9 -8 3 27 71 89 177 56 95 103 171 105 169 3 -2 11
-60 19 -128z"/>
<path d="M3295 4504 c-11 -1 -67 -7 -125 -13 -144 -15 -367 -38 -535 -56 -241
-26 -803 -85 -960 -100 -264 -26 -368 -56 -497 -141 -180 -119 -270 -307 -234
-483 29 -140 109 -196 392 -276 159 -45 186 -60 182 -99 -5 -50 -45 -70 -140
-70 -127 0 -241 35 -361 112 l-48 30 -96 -126 c-53 -70 -109 -143 -124 -162
-16 -19 -29 -39 -29 -45 0 -10 88 -69 145 -98 118 -59 310 -93 465 -83 286 18
502 142 603 345 42 84 42 85 42 195 0 104 -2 114 -29 164 -52 93 -137 143
-346 201 -171 48 -200 60 -200 81 0 10 4 21 9 25 6 3 94 14 198 25 103 11 233
25 288 31 290 31 330 34 333 28 2 -5 -11 -60 -28 -124 -17 -64 -46 -178 -66
-253 -19 -75 -48 -186 -64 -247 -87 -336 -102 -396 -98 -401 5 -4 344 29 425
42 18 3 34 12 37 22 3 9 31 116 62 237 31 121 89 346 129 500 l72 280 59 6
c32 4 113 12 179 18 179 17 168 13 218 94 24 40 80 132 125 205 45 74 82 136
82 138 0 4 -30 3 -65 -2z"/>
<path d="M6203 3233 c-38 -4 -45 -10 -90 -71 -28 -37 -58 -79 -68 -94 -9 -16
-21 -28 -26 -28 -5 0 -27 37 -50 81 l-40 82 -46 -7 c-25 -3 -60 -6 -78 -6 -37
0 -31 21 -65 -205 -11 -77 -28 -178 -35 -224 -8 -46 -14 -85 -12 -86 1 -1 37
2 80 8 58 7 77 13 77 25 0 8 10 67 22 131 l21 116 16 -35 c9 -19 29 -58 45
-87 l29 -52 47 67 c26 37 55 73 64 81 9 7 16 20 16 27 0 8 5 14 11 14 7 0 9
-11 6 -27 -14 -76 -30 -213 -25 -218 3 -4 38 -3 76 0 l70 7 16 87 c8 47 20
118 26 156 6 39 15 97 21 130 5 33 13 77 16 98 l6 37 -44 -2 c-24 -1 -63 -3
-86 -5z"/>
<path d="M5570 3165 c-58 -7 -135 -16 -171 -20 l-66 -6 -12 -77 c-7 -42 -18
-111 -26 -152 -8 -41 -19 -114 -25 -163 -6 -48 -14 -95 -17 -104 -6 -14 0 -15
48 -10 30 4 66 7 81 7 25 0 27 4 38 73 6 39 13 79 16 88 3 13 29 19 116 27 65
7 115 17 119 24 9 13 23 108 18 112 -2 2 -52 -2 -110 -8 -59 -7 -111 -10 -117
-8 -7 2 -7 14 0 36 l10 33 122 12 c66 7 124 15 127 19 4 4 10 35 14 70 l7 62
-34 -1 c-18 -1 -80 -7 -138 -14z"/>
<path d="M4825 3093 c-64 -17 -135 -102 -151 -180 -10 -48 27 -120 70 -138 48
-20 94 -19 141 5 46 23 53 20 34 -17 -29 -54 -115 -79 -183 -53 -24 9 -28 6
-45 -28 -37 -74 -37 -78 14 -97 93 -36 245 8 310 90 62 79 93 186 76 266 -23
107 -75 152 -180 156 -36 1 -75 -1 -86 -4z m103 -115 c7 -7 12 -29 12 -49 0
-31 -5 -40 -33 -56 -29 -18 -35 -18 -55 -5 -31 20 -31 85 0 106 27 19 59 21
76 4z"/>
<path d="M4340 3029 c-30 -11 -70 -25 -89 -32 -32 -11 -33 -12 -27 -55 3 -25
6 -51 6 -59 0 -12 9 -13 41 -8 l40 7 -6 -34 c-3 -18 -12 -80 -21 -138 -8 -58
-18 -122 -21 -143 l-6 -38 39 1 c22 1 56 4 76 7 43 5 38 -10 83 278 14 94 28
185 31 203 l6 32 -48 -1 c-27 0 -74 -9 -104 -20z"/>
<path d="M3914 2986 c-93 -42 -142 -129 -123 -216 14 -65 45 -92 112 -98 48
-4 73 3 140 36 16 8 -21 -53 -48 -78 -21 -20 -37 -25 -78 -25 -29 0 -62 4 -73
8 -19 7 -26 0 -53 -45 -20 -36 -26 -54 -18 -57 7 -2 15 -9 19 -14 3 -6 42 -12
86 -15 74 -4 86 -2 144 25 107 51 155 117 178 243 13 72 9 108 -20 168 -41 84
-162 115 -266 68z m135 -117 c12 -22 12 -29 0 -54 -20 -40 -42 -51 -76 -39
-44 15 -45 90 -1 112 34 16 61 10 77 -19z"/>
<path d="M4525 2713 c-22 -3 -43 -9 -46 -15 -10 -15 -22 -135 -15 -146 5 -8
136 4 145 14 2 2 8 28 12 58 4 30 10 63 14 75 6 19 3 21 -32 19 -21 -1 -56 -3
-78 -5z"/>
<path d="M5922 2375 c-18 -20 -44 -54 -59 -76 -14 -22 -28 -37 -32 -34 -3 3
-8 26 -11 51 -11 91 -47 44 -92 -119 -25 -93 -29 -120 -20 -129 18 -18 27 0
48 87 16 68 34 106 34 72 0 -9 10 -21 22 -28 18 -10 24 -8 39 12 10 13 19 27
19 32 0 4 4 7 9 7 5 0 -4 -48 -20 -107 -34 -128 -35 -149 -9 -163 18 -10 20
-8 20 17 0 33 39 188 74 295 17 51 23 85 18 99 -8 20 -10 19 -40 -16z"/>
<path d="M6327 2344 c-35 -11 -52 -12 -62 -4 -9 7 -26 8 -60 0 -71 -16 -86
-27 -79 -54 3 -14 -2 -38 -12 -57 -20 -39 -30 -124 -15 -133 5 -4 15 10 22 29
12 32 17 35 54 36 64 2 87 -2 102 -17 32 -32 103 -5 103 39 0 14 -4 14 -35 -4
-37 -22 -42 -16 -23 26 7 16 23 28 40 32 31 6 35 15 14 32 -18 15 -9 51 13 53
9 0 29 0 44 -1 23 -2 28 1 25 16 -4 24 -66 27 -131 7z m-24 -43 c17 -6 16 -11
-15 -48 -28 -36 -38 -42 -73 -42 l-39 -1 34 30 c19 16 38 29 42 30 4 0 10 9
13 20 7 21 10 22 38 11z m-102 -22 c-13 -11 -27 -17 -30 -13 -7 7 28 34 43 34
6 -1 0 -10 -13 -21z"/>
<path d="M5993 2307 c-34 -50 -55 -119 -51 -173 3 -47 4 -49 32 -47 84 6 158
193 94 237 -33 24 -51 20 -75 -17z m60 -57 c-14 -58 -64 -132 -79 -117 -10 9
27 108 47 128 11 11 19 25 19 32 0 8 3 7 10 -3 5 -8 6 -26 3 -40z"/>
<path d="M5365 2219 c-16 -44 -32 -79 -35 -79 -3 0 -6 24 -5 53 0 45 -3 52
-20 55 -22 3 -26 -5 -71 -132 -24 -70 -31 -116 -16 -116 13 0 39 52 46 92 10
57 21 52 18 -8 -3 -47 -1 -54 15 -54 32 0 43 15 73 91 19 49 34 75 47 78 10 2
24 8 32 15 12 9 13 7 7 -9 -4 -11 -14 -47 -21 -80 -10 -41 -22 -66 -40 -80
-26 -22 -34 -55 -12 -55 19 0 170 162 196 212 27 51 25 67 -13 88 -24 13 -31
11 -82 -13 -62 -31 -65 -32 -59 -14 3 6 -3 17 -13 23 -16 10 -21 3 -47 -67z
m195 32 c0 -9 -68 -101 -75 -101 -3 0 7 35 30 98 5 13 45 17 45 3z"/>
<path d="M5133 2237 c-65 -98 -85 -141 -78 -174 7 -37 20 -43 30 -13 8 24 41
44 61 36 8 -3 14 -19 14 -40 0 -19 4 -37 9 -40 12 -8 34 21 26 33 -3 6 -1 56
5 112 9 83 9 104 -2 110 -24 16 -43 9 -65 -24z m29 -74 c-3 -34 -8 -43 -23
-43 -10 0 -19 6 -19 13 0 13 39 81 44 76 2 -2 1 -23 -2 -46z"/>
<path d="M4319 2213 c-19 -21 -45 -56 -59 -78 l-25 -40 -8 45 c-15 77 -16 78
-41 49 -14 -16 -36 -73 -55 -144 -31 -112 -34 -145 -12 -145 10 0 51 123 51
153 0 9 5 19 10 22 6 3 10 1 10 -6 0 -12 28 -38 42 -39 3 0 16 16 28 36 12 19
24 33 26 31 2 -1 -10 -54 -27 -116 -32 -118 -34 -154 -9 -159 12 -2 18 14 28
65 7 37 31 130 54 206 46 155 43 182 -13 120z"/>
<path d="M4609 2197 c-35 -29 -79 -95 -79 -118 0 -16 8 -19 50 -19 28 0 50 -4
50 -9 0 -13 -80 -81 -108 -92 -22 -9 -39 -35 -29 -45 18 -18 187 109 187 141
0 18 -45 45 -75 45 -14 0 -25 4 -25 8 0 11 50 57 78 72 23 11 23 12 5 25 -23
18 -23 18 -54 -8z"/>
<path d="M4850 2183 c-37 -42 -69 -107 -70 -140 0 -29 33 -63 61 -63 26 0 89
64 89 91 0 29 -18 23 -53 -16 -59 -67 -72 -34 -25 62 20 40 23 42 39 27 22
-20 39 -11 39 21 0 65 -33 72 -80 18z"/>
<path d="M4730 2203 c-23 -9 -30 -25 -19 -45 14 -25 -18 -138 -44 -159 -12
-10 -18 -23 -14 -32 5 -13 11 -13 42 -3 46 16 64 33 43 41 -14 6 -13 16 9 83
14 42 32 84 39 93 8 8 14 19 14 22 0 8 -49 8 -70 0z"/>
<path d="M4392 2168 c-14 -19 -42 -121 -42 -157 0 -25 6 -34 27 -42 22 -8 30
-6 50 12 l23 22 0 -21 c0 -13 6 -22 15 -22 8 0 18 -1 23 -2 4 -1 10 20 14 46
3 26 14 72 24 102 14 44 15 57 4 67 -10 9 -13 9 -17 0 -7 -19 -104 -162 -114
-169 -13 -8 -10 36 6 81 25 67 17 119 -13 83z"/>
<path d="M3317 2043 c-26 -71 -54 -154 -64 -185 -15 -50 -21 -59 -50 -69 -34
-11 -44 -33 -19 -42 8 -3 40 5 72 18 33 13 80 27 107 30 26 4 47 12 47 19 0 6
13 18 29 28 48 27 84 91 89 158 4 54 2 59 -23 76 -37 24 -53 13 -92 -66 -24
-48 -33 -79 -33 -116 0 -48 -2 -52 -27 -58 -16 -4 -36 -9 -45 -12 -28 -8 -23
18 31 166 68 187 66 180 43 180 -16 0 -28 -24 -65 -127z m168 -62 c-19 -54
-48 -101 -63 -101 -14 0 -9 32 15 89 29 73 74 84 48 12z"/>
<path d="M3912 2078 c-17 -46 -35 -99 -40 -118 -8 -34 -38 -50 -36 -20 1 9 4
52 8 97 7 77 6 82 -14 93 -29 16 -49 -3 -95 -91 -20 -38 -43 -69 -51 -69 -8 0
-32 -19 -54 -42 -33 -36 -40 -40 -46 -25 -6 17 18 90 38 114 7 9 14 9 29 0 14
-9 21 -9 30 0 15 15 3 83 -16 83 -24 0 -70 -46 -99 -99 -36 -68 -33 -108 12
-134 l33 -19 39 42 c32 35 41 40 46 26 9 -23 23 -20 36 9 8 18 19 25 40 25 25
0 28 -3 28 -34 0 -38 14 -54 33 -38 7 6 49 13 95 17 45 4 82 11 82 14 0 17
-27 31 -62 31 -21 0 -38 2 -38 5 0 3 16 47 35 96 40 104 42 119 16 119 -14 0
-26 -20 -49 -82z m-109 -46 c-4 -33 -10 -42 -25 -42 -16 0 -18 4 -12 23 8 25
35 69 40 65 1 -2 0 -22 -3 -46z"/>
<path d="M2660 2062 c-42 -6 -164 -43 -177 -54 -25 -20 -13 -31 28 -25 47 6
47 11 3 -93 -15 -36 -29 -84 -30 -108 -2 -32 -9 -48 -28 -63 -14 -11 -26 -25
-26 -30 0 -11 47 -12 52 -1 2 4 37 32 78 61 41 29 90 68 108 85 l34 31 -4 -35
c-3 -29 1 -36 25 -48 23 -11 31 -11 57 5 17 9 30 25 30 35 0 23 -18 23 -42 1
-24 -21 -32 -11 -21 24 6 19 20 32 42 39 30 10 31 12 18 26 -25 24 -10 58 24
58 28 0 29 -1 23 -40 l-7 -40 54 0 53 0 -39 -41 c-22 -22 -55 -47 -72 -54 -22
-9 -33 -21 -33 -35 l0 -20 43 21 c57 29 103 66 128 101 20 28 20 30 4 49 -11
11 -31 19 -52 19 -39 0 -41 9 -9 47 22 25 26 26 51 15 15 -7 36 -10 46 -7 24
8 24 -3 -1 -85 -25 -81 -25 -103 -3 -98 11 2 21 20 28 53 7 28 21 73 31 100
16 41 24 51 47 53 21 3 27 9 27 28 0 27 -2 27 -98 -2 -37 -11 -47 -10 -72 4
-28 16 -30 16 -57 -9 -23 -21 -35 -25 -65 -22 -36 5 -133 -20 -153 -39 -6 -5
-1 -11 13 -14 29 -8 28 -25 -3 -54 l-25 -24 -16 22 c-9 13 -26 22 -40 22 -22
0 -19 5 28 43 29 24 54 53 56 64 4 25 -22 41 -58 35z m-10 -63 c-32 -25 -60
-41 -60 -34 0 22 36 55 59 55 l26 0 -25 -21z m-7 -134 c-7 -12 -111 -95 -120
-95 -2 0 -3 10 -3 23 0 34 20 56 65 72 53 19 68 19 58 0z"/>
<path d="M2035 2021 c-44 -16 -97 -36 -117 -45 -21 -9 -46 -16 -56 -16 -28 0
-46 -24 -29 -39 11 -8 25 -7 57 4 24 8 45 14 46 12 2 -2 -14 -55 -35 -118 -55
-161 -57 -175 -32 -189 12 -6 22 -8 22 -5 1 3 2 8 3 13 1 4 6 23 10 42 11 53
35 127 68 212 l30 77 60 20 c32 11 65 18 73 14 11 -4 15 2 15 21 0 34 -14 33
-115 -3z"/>
<path d="M2160 1921 c-17 -58 -24 -69 -45 -74 -32 -6 -39 4 -20 29 18 24 20
67 3 62 -7 -2 -25 -28 -39 -58 -15 -30 -33 -62 -41 -70 -22 -23 -30 -50 -14
-50 9 0 12 -7 9 -19 -3 -12 2 -23 15 -30 18 -9 20 -6 26 38 6 48 18 61 53 61
13 0 14 -10 8 -65 -6 -60 -5 -65 13 -65 16 0 20 9 24 48 5 48 32 147 46 169 4
7 17 10 30 7 18 -5 20 -9 10 -28 -6 -11 -17 -25 -24 -29 -9 -5 -14 -26 -14
-57 0 -42 3 -50 23 -56 12 -4 29 -7 37 -5 24 4 50 32 50 53 0 19 -1 19 -29 -1
-38 -28 -44 -26 -37 7 9 33 32 52 65 52 l24 0 -20 23 c-11 12 -18 30 -15 40 3
16 12 18 48 15 40 -3 44 -1 42 17 -4 27 -55 31 -116 11 -57 -20 -66 -20 -58 0
6 17 -9 44 -25 44 -4 0 -17 -31 -29 -69z"/>
</g>
</svg>
