<?xml version="1.0" standalone="no"?>
<!DOCTYPE svg PUBLIC "-//W3C//DTD SVG 20010904//EN"
 "http://www.w3.org/TR/2001/REC-SVG-20010904/DTD/svg10.dtd">
<svg version="1.0" xmlns="http://www.w3.org/2000/svg"
 width="480.000000pt" height="480.000000pt" viewBox="0 0 480.000000 480.000000"
 preserveAspectRatio="xMidYMid meet">
<metadata>
Created by potrace 1.14, written by Peter Selinger 2001-2017
</metadata>
<g transform="translate(0.000000,480.000000) scale(0.100000,-0.100000)"
fill="#000000" stroke="none">
<path d="M379 4511 c0 -20 -1 -67 -2 -106 l0 -70 110 -3 110 -3 -1 108 -1 108
-107 1 -108 2 -1 -37z"/>
<path d="M747 4541 c-2 -3 -3 -51 -2 -106 l0 -100 110 0 110 0 0 105 0 105
-108 1 c-59 1 -108 -1 -110 -5z"/>
<path d="M1119 4541 c-1 -3 -3 -52 -4 -108 l-3 -103 109 0 109 0 0 108 0 109
-105 0 c-58 1 -106 -2 -106 -6z"/>
<path d="M2287 4355 c-1 -2 -33 -5 -72 -9 -98 -9 -254 -42 -344 -73 -457 -155
-817 -500 -991 -949 -36 -94 -73 -229 -85 -314 -3 -19 -8 -53 -12 -75 -3 -22
-7 -92 -8 -155 -9 -445 158 -854 480 -1175 102 -102 213 -185 353 -263 112
-64 312 -139 417 -158 17 -3 55 -12 85 -22 42 -12 98 -16 240 -16 207 -1 263
4 376 34 435 116 749 331 981 671 101 149 212 393 200 440 -3 10 -2 17 3 14 4
-3 15 25 24 61 13 51 14 69 5 80 -9 12 -9 13 4 8 12 -4 15 0 13 20 -2 14 2 26
8 26 6 0 4 5 -4 10 -8 5 -10 10 -5 10 6 0 12 15 13 33 1 17 5 40 8 51 5 14 3
16 -7 10 -11 -6 -12 -5 -3 7 16 21 18 117 2 136 -9 12 -9 15 -1 9 10 -5 12 6
12 44 -2 51 -2 51 -23 33 -17 -15 -17 -13 3 9 23 26 21 54 -2 42 -7 -3 -5 0 3
8 17 14 15 59 -4 71 -8 5 -7 9 3 16 9 6 10 11 3 15 -6 4 -9 13 -6 20 3 8 0 17
-5 21 -6 3 -8 11 -5 17 10 15 -37 179 -49 171 -6 -4 -8 0 -4 11 10 24 -58 191
-73 181 -5 -3 -6 4 -3 14 6 24 -14 64 -28 55 -6 -3 -9 0 -8 7 4 21 -23 69 -34
62 -6 -3 -7 -1 -4 5 10 16 -4 44 -19 38 -8 -3 -11 0 -7 10 6 15 -34 75 -76
113 -14 13 -19 20 -11 15 10 -5 9 0 -4 14 -10 12 -23 19 -28 16 -4 -3 -7 0 -6
8 2 7 -3 12 -11 10 -8 -2 -11 3 -8 11 5 14 -32 54 -46 49 -5 -1 -6 2 -3 6 9
14 -134 143 -231 209 -276 188 -558 279 -892 287 -61 1 -112 2 -114 1z m1204
-478 c-6 -8 -9 -16 -6 -19 3 -3 -3 -11 -12 -19 -16 -13 -17 -12 -4 4 7 9 10
17 6 17 -4 0 -2 7 5 15 7 8 15 15 17 15 3 0 0 -6 -6 -13z m60 -71 c14 8 11 -2
-4 -14 -10 -8 -13 -6 -14 11 0 12 1 16 4 9 3 -6 9 -10 14 -6z m-56 -26 c3 -6
-1 -7 -9 -4 -18 7 -21 14 -7 14 6 0 13 -4 16 -10z m50 -19 c3 -5 2 -12 -3 -15
-5 -3 -9 1 -9 9 0 17 3 19 12 6z m29 -17 c3 -8 2 -12 -4 -9 -6 3 -10 10 -10
16 0 14 7 11 14 -7z m28 -1 c-1 -4 7 -17 16 -28 17 -20 17 -20 -4 -2 -11 9
-21 24 -21 32 0 8 2 13 5 11 2 -2 4 -8 4 -13z m-98 -21 c3 -5 -1 -9 -9 -9 -8
0 -12 4 -9 9 3 4 7 8 9 8 2 0 6 -4 9 -8z m-2 -26 c10 6 11 4 0 -7 -10 -11 -15
-10 -30 6 -15 17 -15 18 0 6 9 -7 23 -9 30 -5z m72 -32 c3 -8 2 -12 -4 -9 -6
3 -10 10 -10 16 0 14 7 11 14 -7z m106 12 c0 -2 -7 -7 -16 -10 -8 -3 -12 -2
-9 4 6 10 25 14 25 6z m7 -23 c-4 -3 1 -12 11 -20 16 -12 16 -13 -2 -6 -14 5
-17 3 -11 -7 5 -8 4 -11 -3 -7 -5 4 -9 15 -7 25 5 23 4 22 12 22 3 0 3 -3 0
-7z m-163 -25 c1 -7 5 -18 8 -24 4 -6 2 -11 -5 -11 -7 0 -13 13 -14 29 -1 28
7 33 11 6z m-29 -8 c3 -6 -1 -7 -9 -4 -18 7 -21 14 -7 14 6 0 13 -4 16 -10z
m76 -37 c13 -16 12 -17 -3 -4 -17 13 -22 21 -14 21 2 0 10 -8 17 -17z m81 0
c-6 -3 -9 -10 -5 -16 4 -7 -1 -6 -10 2 -21 17 -21 17 6 18 12 0 16 -1 9 -4z
m-101 -17 c14 8 11 -2 -4 -14 -10 -8 -13 -6 -14 11 0 12 1 16 4 9 3 -6 9 -10
14 -6z m-47 -4 c3 -5 -1 -9 -9 -9 -8 0 -12 4 -9 9 3 4 7 8 9 8 2 0 6 -4 9 -8z
m176 4 c0 -2 -8 -10 -17 -17 -16 -13 -17 -12 -4 4 13 16 21 21 21 13z m50 0
c0 -3 -4 -8 -10 -11 -5 -3 -10 -1 -10 4 0 6 5 11 10 11 6 0 10 -2 10 -4z
m-228 -30 c10 6 11 4 0 -7 -10 -11 -15 -10 -30 6 -15 17 -15 18 0 6 9 -7 23
-9 30 -5z m38 -10 c0 -2 -8 -10 -17 -17 -16 -13 -17 -12 -4 4 13 16 21 21 21
13z m110 -6 c0 -5 -4 -10 -10 -10 -5 0 -10 5 -10 10 0 6 5 10 10 10 6 0 10 -4
10 -10z m115 0 c3 -5 1 -10 -4 -10 -6 0 -11 5 -11 10 0 6 2 10 4 10 3 0 8 -4
11 -10z m-216 -33 c8 -10 7 -14 -2 -14 -8 0 -14 6 -14 14 0 7 1 13 2 13 2 0 8
-6 14 -13z m57 -23 c1 -9 0 -13 -4 -10 -3 4 -7 14 -8 22 -1 9 0 13 4 10 3 -4
7 -14 8 -22z m80 -10 c1 -9 -1 -13 -4 -9 -4 4 -7 10 -7 13 0 4 -4 14 -9 22 -7
12 -6 13 4 3 8 -7 15 -20 16 -29z m58 28 c3 -5 -1 -9 -9 -9 -8 0 -12 4 -9 9 3
4 7 8 9 8 2 0 6 -4 9 -8z m-91 -15 c3 -7 -3 -13 -14 -13 -13 0 -15 3 -7 13 6
7 12 13 13 13 2 0 5 -6 8 -13z m-158 -7 c3 -6 -1 -7 -9 -4 -18 7 -21 14 -7 14
6 0 13 -4 16 -10z m85 6 c0 -2 -8 -10 -17 -17 -16 -13 -17 -12 -4 4 13 16 21
21 21 13z m159 -12 c5 3 7 -3 4 -14 -3 -12 -6 -19 -7 -18 -1 2 -10 14 -21 28
-15 18 -15 21 -3 11 9 -7 21 -10 27 -7z m-204 -13 c-3 -6 -11 -11 -16 -11 -5
0 -4 6 3 14 14 16 24 13 13 -3z m261 3 c-9 -6 -15 -13 -13 -15 1 -2 0 -3 -2
-1 -14 8 -6 28 11 28 17 0 17 -2 4 -12z m-209 -9 c0 -8 -4 -12 -9 -9 -5 3 -6
10 -3 15 9 13 12 11 12 -6z m76 -30 c-3 -9 -8 -14 -10 -11 -3 3 -2 9 2 15 9
16 15 13 8 -4z m-159 -3 c3 -5 -1 -9 -9 -9 -8 0 -12 4 -9 9 3 4 7 8 9 8 2 0 6
-4 9 -8z m277 -15 c-10 -9 -11 -8 -5 6 3 10 9 15 12 12 3 -3 0 -11 -7 -18z
m43 7 c3 -8 2 -12 -4 -9 -6 3 -10 10 -10 16 0 14 7 11 14 -7z m-322 -18 c10 6
11 4 0 -7 -10 -11 -15 -10 -30 6 -15 17 -15 18 0 6 9 -7 23 -9 30 -5z m75 8
c-3 -3 -12 -4 -19 -1 -8 3 -5 6 6 6 11 1 17 -2 13 -5z m-33 -34 c-6 -6 -10 -3
-10 10 0 13 4 16 10 10 7 -7 7 -13 0 -20z m79 15 c-3 -9 -8 -14 -10 -11 -3 3
-2 9 2 15 9 16 15 13 8 -4z m70 0 c9 2 17 -1 17 -7 0 -5 -6 -8 -12 -5 -7 2
-20 1 -28 -4 -11 -5 -16 -2 -16 11 0 12 4 16 11 11 5 -5 18 -7 28 -6z m-120
-15 c3 -11 1 -18 -4 -14 -5 3 -9 12 -9 20 0 20 7 17 13 -6z m237 10 c0 -5 -4
-10 -10 -10 -5 0 -10 5 -10 10 0 6 5 10 10 10 6 0 10 -4 10 -10z m-22 -45 c-3
-3 -9 2 -12 12 -6 14 -5 15 5 6 7 -7 10 -15 7 -18z m-264 -7 c1 -7 5 -18 8
-24 4 -6 2 -11 -5 -11 -7 0 -13 13 -14 29 -1 28 7 33 11 6z m-29 -8 c3 -6 -1
-7 -9 -4 -18 7 -21 14 -7 14 6 0 13 -4 16 -10z m257 -18 c-7 -2 -9 -9 -5 -15
3 -7 2 -8 -2 -4 -16 14 -14 36 3 29 10 -4 12 -7 4 -10z m34 3 c-1 -8 -5 -17
-8 -21 -5 -4 -4 16 1 34 3 9 9 -1 7 -13z m67 0 c9 2 17 -1 17 -6 0 -13 -38 -5
-53 11 -10 12 -9 12 3 3 8 -6 23 -9 33 -8z m-162 -8 c-6 -8 -9 -16 -6 -19 3
-3 -5 -13 -17 -24 l-23 -19 19 23 c11 12 16 22 11 22 -4 0 -2 7 5 15 7 8 15
15 17 15 3 0 0 -6 -6 -13z m-120 -14 c13 -16 12 -17 -3 -4 -10 7 -18 15 -18
17 0 8 8 3 21 -13z m140 -6 c-10 -9 -11 -8 -5 6 3 10 9 15 12 12 3 -3 0 -11
-7 -18z m-59 6 c-6 -3 -9 -10 -5 -16 4 -7 -1 -6 -10 2 -21 17 -21 17 6 18 12
0 16 -1 9 -4z m-101 -17 c14 8 11 -2 -4 -14 -10 -8 -13 -6 -14 11 0 12 1 16 4
9 3 -6 9 -10 14 -6z m266 8 c-3 -3 -12 -4 -19 -1 -8 3 -5 6 6 6 11 1 17 -2 13
-5z m-313 -12 c3 -5 -1 -9 -9 -9 -8 0 -12 4 -9 9 3 4 7 8 9 8 2 0 6 -4 9 -8z
m-2 -26 c10 6 11 4 0 -7 -10 -11 -15 -10 -30 6 -15 17 -15 18 0 6 9 -7 23 -9
30 -5z m321 -11 c-3 -9 -8 -14 -10 -11 -3 3 -2 9 2 15 9 16 15 13 8 -4z m80
-5 c3 -11 1 -18 -4 -14 -5 3 -9 12 -9 20 0 20 7 17 13 -6z m-359 2 c3 -5 -1
-9 -9 -9 -8 0 -12 4 -9 9 3 4 7 8 9 8 2 0 6 -4 9 -8z m106 -1 c0 -6 -4 -12 -8
-15 -5 -3 -9 1 -9 9 0 8 4 15 9 15 4 0 8 -4 8 -9z m119 6 c-2 -1 -13 -9 -24
-17 -19 -14 -19 -14 -6 3 7 9 18 17 24 17 6 0 8 -1 6 -3z m82 -10 c-6 -8 -7
-18 -3 -22 4 -5 1 -5 -6 -1 -10 6 -10 11 -1 22 6 8 14 14 16 14 3 0 0 -6 -6
-13z m20 -20 c-10 -9 -11 -8 -5 6 3 10 9 15 12 12 3 -3 0 -11 -7 -18z m-331
-12 c-6 -8 -8 -20 -4 -27 5 -10 4 -10 -6 -1 -11 10 -11 15 0 28 7 8 15 15 17
15 3 0 0 -7 -7 -15z m126 -4 c0 -16 -3 -17 -14 -9 -12 10 -7 19 13 28 1 0 1
-9 1 -19z m43 5 c9 -10 8 -15 -2 -19 -8 -3 -13 3 -13 14 0 23 0 23 15 5z m122
-3 c13 -16 12 -17 -3 -4 -17 13 -22 21 -14 21 2 0 10 -8 17 -17z m-341 3 c0
-2 -7 -7 -16 -10 -8 -3 -12 -2 -9 4 6 10 25 14 25 6z m75 -15 c3 -5 2 -12 -3
-15 -5 -3 -9 1 -9 9 0 17 3 19 12 6z m242 -4 c0 -8 -6 -14 -14 -14 -9 0 -10 4
-2 14 6 7 12 13 14 13 1 0 2 -6 2 -13z m118 -6 c3 -5 2 -12 -3 -15 -5 -3 -9 1
-9 9 0 17 3 19 12 6z m-235 -25 c-7 -7 -13 -7 -20 0 -6 6 -3 10 10 10 13 0 16
-4 10 -10z m-202 -23 c-12 -15 -22 -18 -14 -4 4 5 0 11 -6 14 -7 3 -3 4 9 4
17 -1 19 -4 11 -14z m52 11 c0 -8 -19 -13 -24 -6 -3 5 1 9 9 9 8 0 15 -2 15
-3z m310 0 c0 -8 -19 -13 -24 -6 -3 5 1 9 9 9 8 0 15 -2 15 -3z m80 2 c0 -2
-7 -7 -16 -10 -8 -3 -12 -2 -9 4 6 10 25 14 25 6z m-263 -19 c0 -8 -6 -14 -14
-14 -9 0 -10 4 -2 14 6 7 12 13 14 13 1 0 2 -6 2 -13z m193 -2 c-7 -8 -17 -15
-23 -15 -6 0 -2 7 9 15 25 19 30 19 14 0z m-313 -17 c-3 -8 -6 -5 -6 6 -1 11
2 17 5 13 3 -3 4 -12 1 -19z m167 14 c3 -5 -1 -9 -9 -9 -8 0 -12 4 -9 9 3 4 7
8 9 8 2 0 6 -4 9 -8z m103 -14 c-3 -8 -6 -5 -6 6 -1 11 2 17 5 13 3 -3 4 -12
1 -19z m71 -1 c8 -10 6 -13 -11 -14 -12 0 -16 1 -9 4 6 3 10 9 6 14 -8 14 2
11 14 -4z m-367 -14 c13 -16 12 -17 -3 -4 -17 13 -22 21 -14 21 2 0 10 -8 17
-17z m89 13 c0 -2 -7 -7 -16 -10 -8 -3 -12 -2 -9 4 6 10 25 14 25 6z m31 -13
c13 -16 12 -17 -3 -4 -10 7 -18 15 -18 17 0 8 8 3 21 -13z m82 -2 c-12 -10
-20 -21 -18 -25 3 -3 2 -4 -2 -1 -13 10 -11 34 2 29 7 -3 16 -1 20 5 3 6 9 11
13 11 4 -1 -3 -9 -15 -19z m52 9 c3 -6 -1 -7 -9 -4 -18 7 -21 14 -7 14 6 0 13
-4 16 -10z m-113 -32 c-8 -8 -9 -4 -5 13 4 13 8 18 11 10 2 -7 -1 -18 -6 -23z
m188 -2 c0 -2 -7 -7 -16 -10 -8 -3 -12 -2 -9 4 6 10 25 14 25 6z m43 -13 c-4
-10 -9 -11 -19 -2 -18 15 -18 15 5 15 11 0 17 -5 14 -13z m-262 -10 c8 -9 9
-14 2 -10 -6 4 -13 1 -16 -5 -3 -7 -4 -3 -4 10 1 26 1 26 18 5z m116 -5 c0
-13 -1 -17 -4 -10 -3 6 -10 9 -16 5 -7 -4 -6 1 2 10 17 21 17 21 18 -5z m-57
2 c0 -5 -4 -10 -10 -10 -5 0 -10 5 -10 10 0 6 5 10 10 10 6 0 10 -4 10 -10z
m-201 -27 c-6 -7 -17 -13 -23 -12 -7 0 -6 2 2 6 6 2 10 8 8 12 -3 4 1 8 9 8
11 0 12 -4 4 -14z m42 4 c-7 -7 -5 -15 7 -24 16 -13 15 -14 -2 -5 -23 12 -30
39 -10 39 10 0 11 -4 5 -10z m44 3 c3 -6 -1 -7 -9 -4 -18 7 -21 14 -7 14 6 0
13 -4 16 -10z m72 -8 c-17 -18 -51 -27 -41 -10 3 5 9 6 14 3 4 -3 13 2 20 10
7 8 15 15 18 15 3 0 -2 -8 -11 -18z m95 -6 c3 3 8 1 12 -4 11 -18 -25 -8 -41
12 -18 21 -18 21 3 3 11 -9 23 -14 26 -11z m68 20 c0 -2 -7 -7 -16 -10 -8 -3
-12 -2 -9 4 6 10 25 14 25 6z m40 -10 c-7 -7 -13 -7 -20 0 -6 6 -3 10 10 10
13 0 16 -4 10 -10z m-10 -20 c0 -2 -7 -7 -16 -10 -8 -3 -12 -2 -9 4 6 10 25
14 25 6z m120 0 c0 -2 -7 -7 -16 -10 -8 -3 -12 -2 -9 4 6 10 25 14 25 6z
m-439 -23 c13 -16 12 -17 -3 -4 -17 13 -22 21 -14 21 2 0 10 -8 17 -17z m99
-7 c-7 -7 -13 -7 -20 0 -6 6 -3 10 10 10 13 0 16 -4 10 -10z m140 0 c-7 -7
-13 -7 -20 0 -6 6 -3 10 10 10 13 0 16 -4 10 -10z m147 1 c0 -8 -6 -14 -14
-14 -9 0 -10 4 -2 14 6 7 12 13 14 13 1 0 2 -6 2 -13z m-417 -1 c0 -2 -7 -7
-16 -10 -8 -3 -12 -2 -9 4 6 10 25 14 25 6z m470 -2 c0 -8 -19 -13 -24 -6 -3
5 1 9 9 9 8 0 15 -2 15 -3z m-59 -33 c0 10 2 11 6 1 2 -6 10 -9 16 -5 7 3 9 3
5 -2 -4 -4 -2 -15 4 -24 10 -12 7 -12 -8 2 -11 9 -23 15 -26 12 -3 -3 -13 5
-24 17 l-19 23 23 -19 c17 -15 22 -16 23 -5z m-311 -10 c0 -3 -13 -7 -30 -7
-16 -1 -30 1 -30 5 0 3 14 7 30 7 17 1 30 -1 30 -5z m97 3 c-2 -3 -17 -7 -33
-10 -17 -2 -24 -1 -17 4 13 8 58 14 50 6z m103 -6 c0 -6 -3 -8 -7 -5 -3 4 -13
1 -22 -6 -14 -11 -14 -10 -2 6 15 20 31 22 31 5z m-298 -15 c-6 -3 -9 -10 -5
-16 4 -7 -1 -6 -10 2 -21 17 -21 17 6 18 12 0 16 -1 9 -4z m241 -10 c-4 -10
-9 -11 -19 -2 -18 15 -18 15 5 15 11 0 17 -5 14 -13z m74 2 c0 -8 -4 -12 -9
-9 -5 3 -6 10 -3 15 9 13 12 11 12 -6z m53 10 c0 -1 -12 -12 -27 -26 -15 -13
-22 -16 -14 -7 7 9 10 21 8 25 -3 5 3 9 14 9 10 0 19 -1 19 -1z m-232 -30 c-3
-3 -9 2 -12 12 -6 14 -5 15 5 6 7 -7 10 -15 7 -18z m269 3 c-3 -8 -6 -5 -6 6
-1 11 2 17 5 13 3 -3 4 -12 1 -19z m-377 8 c0 -2 -8 -10 -17 -17 -16 -13 -17
-12 -4 4 13 16 21 21 21 13z m404 -5 c3 -5 -2 -15 -12 -22 -15 -12 -16 -12 -5
2 7 9 10 19 6 22 -3 4 -4 7 0 7 3 0 8 -4 11 -9z m-224 -17 c0 -8 -19 -13 -24
-6 -3 5 1 9 9 9 8 0 15 -2 15 -3z m-108 -22 c-7 -2 -9 -9 -5 -15 3 -7 2 -8 -2
-4 -16 14 -14 36 3 29 10 -4 12 -7 4 -10z m34 3 c-1 -8 -5 -17 -8 -21 -5 -4
-4 16 1 34 3 9 9 -1 7 -13z m45 -2 c13 -16 12 -17 -3 -4 -17 13 -22 21 -14 21
2 0 10 -8 17 -17z m153 -9 c3 -8 2 -12 -4 -9 -6 3 -10 10 -10 16 0 14 7 11 14
-7z m-273 -17 c-10 -9 -11 -8 -5 6 3 10 9 15 12 12 3 -3 0 -11 -7 -18z m-50
-12 c5 4 9 1 9 -4 0 -6 -4 -11 -8 -11 -12 0 -32 22 -32 35 0 5 5 2 11 -8 6 -9
14 -15 20 -12z m156 9 c-3 -3 -12 -4 -19 -1 -8 3 -5 6 6 6 11 1 17 -2 13 -5z
m90 -7 c0 -8 -6 -14 -14 -14 -9 0 -10 4 -2 14 6 7 12 13 14 13 1 0 2 -6 2 -13z
m98 -17 c-3 -5 -12 -10 -18 -10 -7 0 -6 4 3 10 19 12 23 12 15 0z m-116 -34
c-3 -3 -11 5 -18 17 -13 21 -12 21 5 5 10 -10 16 -20 13 -22z m201 30 c0 -2
-7 -7 -16 -10 -8 -3 -12 -2 -9 4 6 10 25 14 25 6z m39 -30 c-3 -3 -11 5 -18
17 -13 21 -12 21 5 5 10 -10 16 -20 13 -22z m-306 9 c-3 -9 -8 -14 -10 -11 -3
3 -2 9 2 15 9 16 15 13 8 -4z m91 -1 c3 -8 2 -12 -4 -9 -6 3 -10 10 -10 16 0
14 7 11 14 -7z m32 -10 c1 -9 0 -13 -4 -10 -3 4 -7 14 -8 22 -1 9 0 13 4 10 3
-4 7 -14 8 -22z m81 4 c-3 -8 -6 -5 -6 6 -1 11 2 17 5 13 3 -3 4 -12 1 -19z
m-254 -10 c5 -21 5 -21 -7 -6 -10 14 -15 15 -26 5 -12 -10 -12 -9 -1 6 18 23
28 22 34 -5z m92 13 c3 -5 2 -12 -3 -15 -5 -3 -9 1 -9 9 0 17 3 19 12 6z m144
6 c-2 -1 -13 -9 -24 -17 -19 -14 -19 -14 -6 3 7 9 18 17 24 17 6 0 8 -1 6 -3z
m5 -25 c3 -5 -1 -9 -9 -9 -8 0 -12 4 -9 9 3 4 7 8 9 8 2 0 6 -4 9 -8z m41 -2
c-3 -5 -12 -10 -18 -10 -7 0 -6 4 3 10 19 12 23 12 15 0z m-345 -4 c0 -2 -6
-9 -14 -15 -11 -9 -16 -9 -22 0 -4 7 -3 9 4 5 6 -3 13 -2 17 4 6 10 15 14 15
6z m217 -2 c-3 -3 -12 -4 -19 -1 -8 3 -5 6 6 6 11 1 17 -2 13 -5z m-183 -20
c3 -8 2 -12 -4 -9 -6 3 -10 10 -10 16 0 14 7 11 14 -7z m197 -7 c-10 -9 -11
-8 -5 6 3 10 9 15 12 12 3 -3 0 -11 -7 -18z m43 7 c3 -8 2 -12 -4 -9 -6 3 -10
10 -10 16 0 14 7 11 14 -7z m103 -4 c1 -11 -2 -20 -5 -20 -4 0 -8 9 -9 20 -1
11 2 20 5 20 4 0 8 -9 9 -20z m-240 -15 c0 -8 -4 -12 -9 -9 -4 3 -8 9 -8 15 0
5 4 9 8 9 5 0 9 -7 9 -15z m208 5 c3 -6 -1 -7 -9 -4 -18 7 -21 14 -7 14 6 0
13 -4 16 -10z m-261 -40 c-6 -6 -10 -3 -10 10 0 13 4 16 10 10 7 -7 7 -13 0
-20z m233 8 c-3 -8 -6 -5 -6 6 -1 11 2 17 5 13 3 -3 4 -12 1 -19z m-261 -3
c-1 -8 -5 -17 -8 -21 -5 -4 -4 16 1 34 3 9 9 -1 7 -13z m125 -2 c13 -16 12
-17 -3 -5 -9 8 -23 10 -29 6 -8 -4 -9 -3 -5 4 10 17 21 15 37 -5z m35 -1 c-3
-3 0 -12 6 -21 10 -13 10 -14 -2 -4 -16 15 -23 46 -8 37 5 -3 7 -9 4 -12z m42
-9 c-6 -7 -12 -13 -13 -13 -2 0 -5 6 -8 13 -3 7 3 13 14 13 13 0 15 -3 7 -13z
m132 -8 c-6 -8 -8 -20 -4 -27 5 -10 4 -10 -6 -1 -11 10 -11 15 0 28 7 8 15 15
17 15 3 0 0 -7 -7 -15z m-220 -1 c0 -8 -19 -13 -24 -6 -3 5 1 9 9 9 8 0 15 -2
15 -3z m136 -26 c3 -4 -1 -5 -10 -4 -8 1 -18 5 -22 8 -3 4 1 5 10 4 8 -1 18
-5 22 -8z m-166 -16 c0 -5 -7 -9 -15 -9 -8 0 -12 4 -9 9 3 4 9 8 15 8 5 0 9
-4 9 -8z m21 -25 c-10 -9 -11 -8 -5 6 3 10 9 15 12 12 3 -3 0 -11 -7 -18z
m-26 -7 c-3 -5 -12 -10 -18 -10 -7 0 -6 4 3 10 19 12 23 12 15 0z m104 -3 c8
-10 7 -14 -2 -14 -8 0 -14 6 -14 14 0 7 1 13 2 13 2 0 8 -6 14 -13z m135 -15
c2 -4 -4 -8 -14 -8 -10 0 -16 4 -14 8 3 4 9 8 14 8 5 0 11 -4 14 -8z m-104 -6
c0 -2 -8 -10 -17 -17 -16 -13 -17 -12 -4 4 13 16 21 21 21 13z m-37 -26 c3
-11 1 -18 -4 -14 -5 3 -9 12 -9 20 0 20 7 17 13 -6z m151 -1 c-2 -4 -12 -6
-22 -4 -9 1 -26 -5 -37 -14 -19 -16 -20 -15 -3 5 16 18 73 30 62 13z m-85 -43
c-3 -3 -11 5 -18 17 -13 21 -12 21 5 5 10 -10 16 -20 13 -22z m58 5 c-1 -15
-4 -17 -14 -9 -15 12 -17 22 -3 13 6 -3 10 -1 10 4 0 6 2 11 4 11 3 0 4 -9 3
-19z m-126 -18 c-12 -20 -14 -14 -5 12 4 9 9 14 11 11 3 -2 0 -13 -6 -23z m54
-22 c-9 -8 -36 -10 -30 -2 2 4 11 8 20 8 8 0 13 -3 10 -6z m86 -8 c12 -16 12
-17 -2 -6 -9 7 -20 9 -24 5 -5 -4 -5 -1 -1 6 9 16 11 15 27 -5z m-67 -11 c3
-5 -1 -9 -9 -9 -8 0 -12 4 -9 9 3 4 7 8 9 8 2 0 6 -4 9 -8z m61 -20 c-3 -3
-11 0 -18 7 -9 10 -8 11 6 5 10 -3 15 -9 12 -12z"/>
<path d="M1290 1010 c-34 -5 -35 -6 -36 -53 l-2 -48 44 2 44 3 0 47 c0 26 -3
49 -7 51 -5 2 -24 1 -43 -2z"/>
<path d="M808 989 c-5 -3 -8 -21 -6 -40 l3 -34 60 -2 c33 0 69 -2 81 -2 20 -1
20 -6 20 -206 l-1 -205 46 0 46 0 -1 201 c-1 152 2 203 11 206 7 3 45 6 84 7
l72 1 1 38 c1 26 -3 37 -14 38 -81 4 -394 3 -402 -2z"/>
<path d="M1585 880 c-16 -4 -40 -12 -53 -19 -17 -9 -22 -9 -20 0 2 8 -13 13
-39 15 l-43 3 0 -189 0 -190 43 0 42 0 -1 116 c0 87 3 123 15 147 32 63 123
56 133 -10 2 -15 3 -79 3 -140 l0 -113 43 0 44 0 -4 148 c-2 121 -6 153 -21
175 -32 50 -83 70 -142 57z"/>
<path d="M1975 884 c-5 -1 -22 -5 -37 -8 -14 -3 -40 -18 -58 -32 -108 -92 -83
-285 45 -338 42 -18 156 -15 198 4 23 11 27 19 27 57 l0 43 -40 -20 c-43 -22
-128 -27 -161 -10 -16 9 -49 58 -49 74 0 3 60 7 133 8 147 3 136 -3 124 81 -8
55 -36 101 -75 121 -27 14 -88 25 -107 20z m66 -87 c14 -11 39 -49 39 -60 0
-2 -40 -5 -90 -5 -80 -1 -89 0 -83 16 19 51 95 79 134 49z"/>
<path d="M2376 878 c-22 -5 -46 -14 -53 -20 -11 -9 -13 -8 -11 2 2 10 -9 15
-39 16 l-43 2 0 -189 0 -189 43 0 42 0 0 129 c1 144 8 164 67 176 23 6 35 2
51 -14 20 -19 21 -32 22 -153 l0 -133 43 -3 42 -3 0 121 c0 96 4 128 17 150
28 49 103 48 118 -2 4 -11 7 -77 8 -145 l0 -123 43 0 42 0 -2 143 c-2 152 -13
191 -59 221 -48 32 -119 24 -166 -18 -17 -15 -25 -17 -28 -8 -5 13 -55 42 -81
46 -10 2 -35 -1 -56 -6z"/>
<path d="M3303 876 c-28 -6 -54 -14 -58 -17 -3 -4 -7 -23 -8 -43 -3 -28 0 -36
13 -36 9 0 21 5 27 11 7 7 39 12 72 13 50 1 64 -3 83 -21 12 -12 20 -24 17
-27 -2 -2 -34 -7 -71 -10 -37 -3 -83 -13 -102 -23 -73 -34 -87 -137 -27 -197
29 -28 37 -31 95 -31 41 0 70 5 81 15 14 11 19 12 22 3 3 -8 22 -13 46 -13
l42 0 -1 123 c-2 138 -6 169 -29 204 -31 47 -116 68 -202 49z m142 -208 c3 -3
3 -17 0 -31 -16 -62 -100 -92 -136 -49 -37 46 10 90 91 87 22 -1 42 -4 45 -7z"/>
<path d="M1261 871 c-4 -3 -8 -88 -8 -188 l1 -183 43 0 43 0 -2 188 -3 187
-32 1 c-18 0 -37 -2 -42 -5z"/>
<path d="M2816 858 c3 -10 35 -89 70 -176 67 -162 71 -186 37 -224 -9 -10 -30
-18 -47 -18 -29 0 -31 -3 -32 -35 0 -19 4 -36 10 -36 37 -5 94 4 113 16 29 20
37 36 122 250 40 99 76 188 81 197 19 34 12 46 -29 46 -45 1 -43 4 -106 -156
-21 -51 -39 -92 -40 -90 -2 2 -22 53 -45 113 -24 61 -47 115 -52 122 -5 6 -27
11 -49 10 -33 -1 -38 -4 -33 -19z"/>
<path d="M3590 852 c4 -15 36 -95 71 -178 61 -150 66 -173 40 -214 -6 -8 -22
-15 -38 -16 -15 -1 -33 -3 -38 -3 -12 -1 -13 -50 -3 -67 10 -15 87 -7 115 12
13 8 33 36 46 62 30 60 167 405 167 421 0 8 -15 11 -41 9 -40 -3 -42 -5 -61
-53 -11 -28 -33 -83 -50 -124 l-31 -74 -45 114 c-24 63 -49 119 -54 125 -4 7
-26 12 -47 12 -38 1 -39 0 -31 -26z"/>
</g>
</svg>
